<?xml version="1.0" encoding="UTF-8" standalone="no"?>
<!-- Created with Inkscape (http://www.inkscape.org/) -->

<svg
   xmlns:dc="http://purl.org/dc/elements/1.1/"
   xmlns:cc="http://creativecommons.org/ns#"
   xmlns:rdf="http://www.w3.org/1999/02/22-rdf-syntax-ns#"
   xmlns:svg="http://www.w3.org/2000/svg"
   xmlns="http://www.w3.org/2000/svg"
   xmlns:sodipodi="http://sodipodi.sourceforge.net/DTD/sodipodi-0.dtd"
   xmlns:inkscape="http://www.inkscape.org/namespaces/inkscape"
   width="1906.5502"
   height="332.58521"
   viewBox="0 0 504.44139 87.996505"
   version="1.1"
   id="svg1522"
   inkscape:version="0.92.3 (2405546, 2018-03-11)"
   sodipodi:docname="logo.svg"
   inkscape:export-filename="logo-final-blanco.png"
   inkscape:export-xdpi="130.92"
   inkscape:export-ydpi="130.92">
  <defs
     id="defs1516" />
  <sodipodi:namedview
     id="base"
     pagecolor="#ffffff"
     bordercolor="#666666"
     borderopacity="1.0"
     inkscape:pageopacity="0.0"
     inkscape:pageshadow="2"
     inkscape:zoom="0.35"
     inkscape:cx="952.35235"
     inkscape:cy="524.03642"
     inkscape:document-units="mm"
     inkscape:current-layer="text904"
     showgrid="false"
     units="px"
     fit-margin-top="50"
     fit-margin-left="50"
     fit-margin-right="50"
     fit-margin-bottom="50"
     inkscape:window-width="1366"
     inkscape:window-height="705"
     inkscape:window-x="0"
     inkscape:window-y="30"
     inkscape:window-maximized="1" />
  <metadata
     id="metadata1519">
    <rdf:RDF>
      <cc:Work
         rdf:about="">
        <dc:format>image/svg+xml</dc:format>
        <dc:type
           rdf:resource="http://purl.org/dc/dcmitype/StillImage" />
        <dc:title />
      </cc:Work>
    </rdf:RDF>
  </metadata>
  <g
     inkscape:label="Capa 1"
     inkscape:groupmode="layer"
     id="layer1"
     transform="translate(370.90522,-78.376752)">
    <g
       aria-label="lealthCloud"
       style="font-style:normal;font-variant:normal;font-weight:normal;font-stretch:normal;font-size:83.83946991px;line-height:52.39966965px;font-family:Anton;-inkscape-font-specification:Anton;letter-spacing:0px;word-spacing:0px;fill:#000000;fill-opacity:1;stroke:none;stroke-width:2.0959866px;stroke-linecap:butt;stroke-linejoin:miter;stroke-opacity:1"
       id="text904">
      <path
         d="m -307.87295,151.97034 h 8.38395 c 1.34143,0 2.09598,-0.75456 2.09598,-2.09599 V 93.701905 c 0,-1.341431 -0.75455,-2.095986 -2.09598,-2.095986 h -8.38395 c -1.34143,0 -2.09599,0.754555 -2.09599,2.095986 v 56.172445 c 0,1.34143 0.75456,2.09599 2.09599,2.09599 z"
         style="fill:#ffffff;fill-opacity:1;stroke-width:2.0959866px"
         id="path12" />
      <path
         d="m -267.81733,108.87685 c -13.24664,0 -22.46898,9.64154 -22.46898,22.13362 0,12.49208 8.88698,22.13362 22.80433,22.13362 8.55163,0 15.42647,-3.77278 18.69621,-11.06681 0.67071,-1.34143 -0.16768,-2.34751 -1.67679,-2.34751 l -8.04859,0.0838 c -1.08992,0 -1.76063,0.4192 -2.59903,1.08992 -1.50911,1.25759 -3.85661,2.09598 -6.20412,2.09598 -4.44349,0 -8.30011,-1.9283 -9.80922,-6.95867 h 17.77397 10.22842 c 1.25759,0 2.09598,-0.58688 2.26366,-1.92831 0.0838,-1.00607 0.16768,-2.01215 0.16768,-3.10206 0,-12.65976 -8.88698,-22.13362 -21.12754,-22.13362 z m -9.39003,17.60629 c 1.2576,-4.10814 4.52734,-6.45564 9.30619,-6.45564 3.68893,0 7.37787,1.76063 8.63546,6.45564 z"
         style="fill:#ffffff;fill-opacity:1;stroke-width:2.0959866px"
         id="path14" />
      <path
         d="m -222.36586,108.87685 c -8.55163,0 -16.26486,4.61117 -17.35477,13.66583 -0.0838,1.42527 0.75455,2.17983 2.09599,2.17983 h 8.21626 c 1.2576,0 1.67679,-0.67072 2.17983,-1.84447 0.67072,-1.42527 2.26367,-2.43134 4.86269,-2.43134 3.52126,0 5.19805,1.84446 5.19805,5.9526 v 3.85661 c -2.26367,-1.76062 -5.61725,-3.26974 -10.8153,-3.26974 -7.37787,0 -13.83351,4.35966 -13.83351,13.07896 0,8.71931 6.45564,13.07896 13.83351,13.07896 5.19805,0 8.55163,-1.76063 10.8153,-4.44349 v 1.17375 c 0,1.34143 0.75455,2.09599 2.09598,2.09599 h 8.04859 c 1.34143,0 2.09599,-0.75456 2.09599,-2.09599 V 125.5609 c 0,-11.31832 -8.21627,-16.68405 -17.43861,-16.68405 z m -1.17375,35.38026 c -3.85662,0 -5.70109,-1.76063 -5.70109,-4.19198 0,-2.43134 1.84447,-4.19197 5.70109,-4.19197 4.10813,0 6.3718,1.59295 6.3718,4.19197 0,2.43135 -2.26367,4.19198 -6.3718,4.19198 z"
         style="fill:#ffffff;fill-opacity:1;stroke-width:2.0959866px"
         id="path16" />
      <path
         d="m -194.72242,151.97034 h 8.38395 c 1.34143,0 2.09599,-0.75456 2.09599,-2.09599 V 93.701905 c 0,-1.341431 -0.75456,-2.095986 -2.09599,-2.095986 h -8.38395 c -1.34143,0 -2.09598,0.754555 -2.09598,2.095986 v 56.172445 c 0,1.34143 0.75455,2.09599 2.09598,2.09599 z"
         style="fill:#ffffff;fill-opacity:1;stroke-width:2.0959866px"
         id="path18" />
      <path
         d="m -154.49913,110.0506 h -4.61117 V 98.732274 c 0,-1.341432 -0.75456,-2.095987 -2.09599,-2.095987 h -8.38394 c -1.34144,0 -2.09599,0.754555 -2.09599,2.095987 V 110.0506 h -4.61117 c -1.34143,0 -2.09599,0.75456 -2.09599,2.09599 v 7.88091 c 0,1.34143 0.75456,2.09599 2.09599,2.09599 h 4.61117 v 27.75086 c 0,1.34143 0.75455,2.09599 2.09599,2.09599 h 8.38394 c 1.34143,0 2.09599,-0.75456 2.09599,-2.09599 v -27.75086 h 4.61117 c 1.34143,0 2.09599,-0.75456 2.09599,-2.09599 v -7.88091 c 0,-1.34143 -0.75456,-2.09599 -2.09599,-2.09599 z"
         style="fill:#ffffff;fill-opacity:1;stroke-width:2.0959866px"
         id="path20" />
      <path
         d="m -123.07242,108.87685 c -5.36573,0 -8.97083,2.09599 -10.89913,5.03037 V 95.378695 c 0,-1.341432 -0.75456,-2.095987 -2.09599,-2.095987 h -8.38395 c -1.34143,0 -2.09598,0.754555 -2.09598,2.095987 v 54.495655 c 0,1.34143 0.75455,2.09599 2.09598,2.09599 h 8.38395 c 1.34143,0 2.09599,-0.75456 2.09599,-2.09599 v -22.38514 c 0,-4.94653 2.3475,-7.04251 6.12028,-7.04251 3.1859,0 5.61724,1.84446 5.61724,6.03644 v 23.39121 c 0,1.34143 0.75456,2.09599 2.09599,2.09599 h 8.38395 c 1.34143,0 2.09598,-0.75456 2.09598,-2.09599 v -24.48113 c 0,-10.47993 -5.61724,-16.51637 -13.41431,-16.51637 z"
         style="fill:#ffffff;fill-opacity:1;stroke-width:2.0959866px"
         id="path22" />
      <path
         d="m -73.094934,153.14409 c 13.498154,0 24.984162,-8.55163 28.253901,-20.79219 0.335358,-1.34143 -0.419197,-2.17983 -1.844468,-2.17983 h -9.893058 c -1.173752,0 -1.844468,0.58688 -2.347505,1.67679 -2.347505,5.11421 -7.797071,8.21627 -14.16887,8.21627 -10.396095,0 -17.103252,-6.95867 -17.103252,-17.43861 0,-10.47993 6.707157,-17.43861 17.103252,-17.43861 6.371799,0 11.821365,3.10206 14.16887,8.21627 0.503037,1.08991 1.173753,1.67679 2.347505,1.67679 h 9.893058 c 1.425271,0 2.179826,-0.92223 1.844468,-2.34751 -3.437418,-12.24056 -14.839586,-20.624505 -28.253901,-20.624505 -17.690129,0 -30.517566,13.246635 -30.517566,30.517565 0,17.27093 12.827437,30.51757 30.517566,30.51757 z"
         style="fill:#ffffff;fill-opacity:1;stroke-width:2.0959866px"
         id="path24" />
      <path
         d="m -36.868404,151.97034 h 8.383947 c 1.341432,0 2.095987,-0.75456 2.095987,-2.09599 V 93.701905 c 0,-1.341431 -0.754555,-2.095986 -2.095987,-2.095986 h -8.383947 c -1.341431,0 -2.095987,0.754555 -2.095987,2.095986 v 56.172445 c 0,1.34143 0.754556,2.09599 2.095987,2.09599 z"
         style="fill:#ffffff;fill-opacity:1;stroke-width:2.0959866px"
         id="path26" />
      <path
         d="m 2.9356771,153.14409 c 12.3244019,0 22.2174599,-9.64154 22.2174599,-22.13362 0,-12.49208 -9.893058,-22.13362 -22.2174599,-22.13362 -12.3244021,0 -22.2174591,9.64154 -22.2174591,22.13362 0,12.49208 9.893057,22.13362 22.2174591,22.13362 z m 0,-12.24056 c -5.4495656,0 -9.6415391,-3.94046 -9.6415391,-9.89306 0,-5.9526 4.1919735,-9.89306 9.6415391,-9.89306 5.4495655,0 9.6415389,3.94046 9.6415389,9.89306 0,5.9526 -4.1919734,9.89306 -9.6415389,9.89306 z"
         style="fill:#ffffff;fill-opacity:1;stroke-width:2.0959866px"
         id="path28" />
      <path
         d="m 65.96985,110.0506 h -8.383947 c -1.341431,0 -2.095987,0.75456 -2.095987,2.09599 v 22.38514 c 0,4.94653 -2.347505,7.04251 -6.120281,7.04251 -3.1859,0 -5.617244,-1.84447 -5.617244,-6.03644 v -23.39121 c 0,-1.34143 -0.754556,-2.09599 -2.095987,-2.09599 h -8.383947 c -1.341432,0 -2.095987,0.75456 -2.095987,2.09599 v 24.48112 c 0,10.47994 5.617245,16.51638 13.414315,16.51638 5.281887,0 8.886984,-2.01215 10.899131,-4.94653 v 1.67679 c 0,1.34143 0.754556,2.09599 2.095987,2.09599 h 8.383947 c 1.341432,0 2.095987,-0.75456 2.095987,-2.09599 v -37.72776 c 0,-1.34143 -0.754555,-2.09599 -2.095987,-2.09599 z"
         style="fill:#ffffff;fill-opacity:1;stroke-width:2.0959866px"
         id="path30" />
      <path
         d="m 118.21102,93.282708 h -8.38395 c -1.34143,0 -2.09598,0.754555 -2.09598,2.095987 v 18.612365 c -2.85055,-3.1859 -6.95868,-5.11421 -12.492085,-5.11421 -10.98297,0 -20.037633,9.64154 -20.037633,22.13362 0,12.49208 9.054663,22.13362 20.037633,22.13362 5.533405,0 9.641535,-1.84447 12.492085,-5.03037 v 1.76063 c 0,1.34143 0.75455,2.09599 2.09598,2.09599 h 8.38395 c 1.34143,0 2.09599,-0.75456 2.09599,-2.09599 V 95.378695 c 0,-1.341432 -0.75456,-2.095987 -2.09599,-2.095987 z M 97.754189,141.23888 c -5.784923,0 -9.976897,-3.94045 -9.976897,-10.22841 0,-6.28796 4.191974,-10.22842 9.976897,-10.22842 5.784921,0 9.976901,3.94046 9.976901,10.22842 0,6.28796 -4.19198,10.22841 -9.976901,10.22841 z"
         style="fill:#ffffff;fill-opacity:1;stroke-width:2.0959866px"
         id="path32" />
    </g>
    <path
       style="font-style:normal;font-variant:normal;font-weight:normal;font-stretch:normal;font-size:83.83946991px;line-height:52.39966965px;font-family:Anton;-inkscape-font-specification:Anton;letter-spacing:0px;word-spacing:0px;fill:#ffffff;fill-opacity:1;stroke:none;stroke-width:2.0959866px;stroke-linecap:butt;stroke-linejoin:miter;stroke-opacity:1"
       d="m -336.00341,91.605918 c -1.34143,0 -2.096,0.754565 -2.096,2.095997 v 21.797115 h -17.56481 c -1.34144,0 -2.096,0.75457 -2.096,2.096 v 8.38398 c 0,1.34144 0.75456,2.096 2.096,2.096 h 17.56481 v 21.79919 c 0,1.34143 0.75457,2.09599 2.096,2.09599 h 8.38399 c 1.34143,0 2.09599,-0.75456 2.09599,-2.09599 v -21.79919 h 28.14815 l -0.0207,0.0207 V 115.4784 l -0.5085,0.0207 h -27.61899 V 93.701915 c 0,-1.341432 -0.75456,-2.095997 -2.09599,-2.095997 z"
       id="text916"
       inkscape:connector-curvature="0"
       sodipodi:nodetypes="sscsssscssssccccccsss" />
  </g>
</svg>
