<?xml version="1.0" encoding="UTF-8" standalone="no"?>
<svg
   xmlns:dc="http://purl.org/dc/elements/1.1/"
   xmlns:cc="http://creativecommons.org/ns#"
   xmlns:rdf="http://www.w3.org/1999/02/22-rdf-syntax-ns#"
   xmlns:svg="http://www.w3.org/2000/svg"
   xmlns="http://www.w3.org/2000/svg"
   xmlns:sodipodi="http://sodipodi.sourceforge.net/DTD/sodipodi-0.dtd"
   xmlns:inkscape="http://www.inkscape.org/namespaces/inkscape"
   height="244.60918"
   width="1686.1411"
   xml:space="preserve"
   y="0"
   x="0"
   id="Art"
   version="1.1"
   viewBox="-1348.0212 -351.96825 16415.779 645.70998"
   sodipodi:docname="Google_Cloud_Platform-Logo.wine.svg"
   inkscape:version="0.92.3 (2405546, 2018-03-11)"><metadata
     id="metadata23"><rdf:RDF><cc:Work
         rdf:about=""><dc:format>image/svg+xml</dc:format><dc:type
           rdf:resource="http://purl.org/dc/dcmitype/StillImage" /><dc:title></dc:title></cc:Work></rdf:RDF></metadata><defs
     id="defs21" /><sodipodi:namedview
     pagecolor="#ffffff"
     bordercolor="#666666"
     borderopacity="1"
     objecttolerance="10"
     gridtolerance="10"
     guidetolerance="10"
     inkscape:pageopacity="0"
     inkscape:pageshadow="2"
     inkscape:window-width="1366"
     inkscape:window-height="705"
     id="namedview19"
     showgrid="false"
     fit-margin-top="50"
     fit-margin-left="50"
     fit-margin-right="50"
     fit-margin-bottom="50"
     inkscape:zoom="0.417193"
     inkscape:cx="892.59813"
     inkscape:cy="-97.390595"
     inkscape:window-x="0"
     inkscape:window-y="30"
     inkscape:window-maximized="1"
     inkscape:current-layer="g730" /><style
     id="style696"
     type="text/css">.st4{fill:#5f6368}</style><g
     transform="translate(5594.1724,-2703.565)"
     id="g730"><g
       id="g710"
       transform="translate(19.471418,1966.6124)"
       inkscape:export-filename="p-gcp.png"
       inkscape:export-xdpi="24.209999"
       inkscape:export-ydpi="24.209999"><path
         id="path702"
         d="m 1057.1,369.2 h 50.8 l 144.8,-144.8 7.1,-61.5 C 990.3,-75 579,-49.3 341.1,220.2 275,295 227.1,384.1 200.9,480.5 c 16.1,-6.6 34,-7.7 50.8,-3 l 289.6,-47.8 c 0,0 14.7,-24.4 22.4,-22.9 128.8,-141.5 345.6,-158 494.4,-37.6 z"
         inkscape:connector-curvature="0"
         style="fill:#ea4335" /><path
         id="path704"
         d="m 1459,480.5 c -33.3,-122.6 -101.6,-232.8 -196.6,-317 l -203.2,203.2 c 85.8,70.1 134.7,175.8 132.6,286.6 v 36.1 c 99.9,0 180.9,81 180.9,180.9 0,99.9 -81,180.9 -180.9,180.9 H 830 l -36.1,36.6 v 217 l 36.1,36.1 h 361.8 c 259.8,2 472.1,-207 474.1,-466.8 1.2,-157.8 -76.5,-305.4 -206.9,-393.6 z"
         inkscape:connector-curvature="0"
         style="fill:#4285f4" /><path
         id="path706"
         d="M 467.7,1338.6 H 829.5 V 1049 H 467.7 c -25.8,0 -51.2,-5.6 -74.7,-16.3 l -50.8,15.8 -145.8,144.8 -12.7,50.8 c 81.7,61.8 181.5,95 284,94.5 z"
         inkscape:connector-curvature="0"
         style="fill:#34a853" /><path
         id="path708"
         d="M 467.7,399.2 C 207.8,400.7 -1.5,612.6 0,872.5 c 0.9,145.1 68.6,281.7 183.7,370.1 L 393.5,1032.8 C 302.5,991.7 262,884.5 303.1,793.5 c 41.1,-91 148.3,-131.5 239.3,-90.4 40.1,18.1 72.2,50.3 90.4,90.4 L 842.6,583.7 C 753.4,466.9 614.6,398.6 467.7,399.2 Z"
         inkscape:connector-curvature="0"
         style="fill:#fbbc05" /></g><g
       id="g728"
       transform="translate(19.471418,1966.6124)"
       inkscape:export-filename="p-gcp.png"
       inkscape:export-xdpi="24.209999"
       inkscape:export-ydpi="24.209999"><g
         id="g714"><path
           id="path712"
           d="m 2629.1,1136.4 c -125.9,1.6 -246.9,-48.1 -335.3,-137.7 -91.3,-85.8 -142.3,-206 -140.7,-331.3 -1.5,-125.3 49.5,-245.4 140.7,-331.3 88,-90.5 209.1,-141.2 335.3,-140.2 120.2,-1.6 236.1,45.1 321.6,129.6 l -90.4,92 c -61.9,-59.9 -145.1,-92.7 -231.2,-91.5 -90.3,-1.1 -177,35.8 -238.8,101.6 -64.2,63.7 -99.6,150.9 -98.1,241.3 -0.8,89.4 34.6,175.3 98.1,238.3 130.8,130.4 341.7,132.9 475.6,5.6 39.9,-43.6 64.3,-99.2 69.6,-158 h -304.9 v -130 H 3062 c 4.2,26.2 5.9,52.7 5.1,79.3 5.4,110.9 -34.8,219.2 -111.3,299.8 -85.1,88.5 -203.9,136.7 -326.7,132.5 z m 1003,-86.4 c -120.3,115.3 -310.1,115.3 -430.4,0 -58.3,-56.5 -90.1,-134.8 -87.9,-215.9 -2.2,-81.1 29.7,-159.4 87.9,-215.9 120.4,-115 310,-115 430.4,0 58.2,56.5 90.1,134.8 87.9,215.9 2.1,81.2 -30,159.5 -88.4,215.9 z m -335.4,-84.8 c 62.1,66.4 166.3,69.8 232.7,7.6 2.6,-2.5 5.2,-5 7.6,-7.6 33.9,-35.1 52.2,-82.3 50.8,-131.1 1.5,-48.9 -16.8,-96.4 -50.8,-131.6 -63.9,-66.6 -169.7,-68.9 -236.4,-5 -1.7,1.6 -3.4,3.3 -5,5 -34,35.2 -52.3,82.7 -50.8,131.6 -1.3,48.8 17.2,96.1 51.3,131.1 z m 996.9,84.8 c -120.3,115.3 -310.1,115.3 -430.4,0 -58.3,-56.5 -90.1,-134.8 -87.9,-215.9 -2.2,-81.1 29.7,-159.4 87.9,-215.9 120.3,-115.3 310.1,-115.3 430.4,0 58.2,56.5 90.1,134.8 87.9,215.9 2.3,81.1 -29.6,159.4 -87.9,215.9 z m -335.3,-84.8 c 62.1,66.4 166.3,69.8 232.7,7.6 2.6,-2.5 5.2,-5 7.6,-7.6 33.9,-35.1 52.2,-82.3 50.8,-131.1 1.5,-48.9 -16.8,-96.4 -50.8,-131.6 -63.9,-66.6 -169.7,-68.9 -236.3,-5 -1.7,1.6 -3.4,3.3 -5,5 -34,35.2 -52.3,82.7 -50.8,131.6 -1.3,48.8 17.2,96.1 51.3,131.1 z m 770.2,442.5 c -60.9,1.9 -120.6,-17.1 -169.2,-53.9 a 311.85,311.85 0 0 1 -98.6,-125 l 115.8,-48.3 c 12.6,29.6 32.3,55.6 57.4,75.7 26.8,21.6 60.5,33 95,32 44.2,2.7 87.4,-14 118.4,-45.7 30.6,-36.9 45.7,-84.3 42.2,-132.1 v -43.7 h -4.6 c -39.3,46.6 -98.2,72 -159,68.6 -77.1,0.2 -150.8,-31.8 -203.2,-88.4 -56.8,-56.1 -88.2,-133 -86.9,-212.9 -1.4,-80.3 30,-157.7 86.9,-214.4 52.3,-56.8 126,-89.1 203.2,-88.9 32.3,-0.1 64.3,7.1 93.5,20.8 25.3,11 47.8,27.5 66.1,48.3 h 4.6 v -48.3 h 126 v 541.1 c 6.7,86.5 -22.5,172 -80.8,236.3 -55.5,53.1 -130,81.5 -206.8,78.8 z m 9.2,-390.2 c 43.9,1 86,-17.7 114.8,-50.8 31.3,-35.9 47.9,-82.4 46.2,-130.1 1.9,-48.5 -14.6,-95.8 -46.2,-132.6 -28.8,-33.2 -70.9,-51.8 -114.8,-50.8 -45.1,-0.9 -88.4,17.6 -118.9,50.8 -33.6,35.5 -51.9,82.8 -50.8,131.6 -1,48.4 17.2,95.2 50.8,130.1 30.3,33.5 73.6,52.4 118.9,51.8 z M 5240.2,230 v 888.1 H 5107.6 V 230 Z m 363.8,906.4 c -80.3,2.1 -157.8,-29.4 -213.9,-86.9 -56.9,-57 -88,-134.9 -85.9,-215.4 -3,-80.7 26.9,-159.2 82.8,-217.5 52.8,-55.6 126.6,-86.4 203.2,-84.9 34.9,-0.4 69.4,6.4 101.6,19.8 29,11.7 55.4,29 77.7,50.8 19.2,18.5 36.2,39.1 50.8,61.5 11.8,18.9 21.8,38.8 30,59.4 L 5864,757.8 5457.6,925 c 25.2,57.8 83.3,94.2 146.3,91.5 60.9,0.2 117.4,-31.7 148.9,-83.8 l 101.6,68.6 a 333.72,333.72 0 0 1 -97.6,92.5 c -45.6,28.8 -98.8,43.6 -152.8,42.6 z M 5434.3,824.9 5704.6,712.6 c -8.3,-19.8 -23.2,-36.1 -42.2,-46.2 -21.2,-12 -45.2,-18.1 -69.6,-17.8 -41.3,1.1 -80.6,18.4 -109.2,48.3 -34.7,33.2 -52.8,80.1 -49.3,128 z"
           class="st4"
           inkscape:connector-curvature="0"
           style="fill:#5f6368" /></g><g
         id="g726"><path
           id="path716"
           d="m 6558.7,1136.4 c -231.2,4 -421.8,-180.2 -425.8,-411.4 -0.1,-5.6 -0.1,-11.3 0.1,-16.9 -5.4,-231.2 177.7,-422.9 408.8,-428.3 5.6,-0.1 11.3,-0.1 16.9,-0.1 115.6,-3.6 226.6,45.8 301.3,134.1 l -73.2,71.1 c -54.9,-69.1 -139.5,-107.8 -227.6,-104.2 -84.5,-1.9 -166.2,30.8 -226.1,90.4 -62.3,62.7 -95.6,148.5 -92,236.8 -3.7,88.3 29.7,174.1 92,236.8 59.9,59.7 141.6,92.3 226.1,90.4 98.4,1.1 191.9,-42.7 254,-118.9 l 73.2,73.2 c -38.3,45.8 -86.4,82.4 -140.7,107.2 -58.6,27.2 -122.5,40.8 -187,39.8 z"
           class="st4"
           inkscape:connector-curvature="0"
           style="fill:#5f6368" /><path
           id="path718"
           d="M 7083,1118.1 H 6977.8 V 297.5 H 7083 Z"
           class="st4"
           inkscape:connector-curvature="0"
           style="fill:#5f6368" /><path
           id="path720"
           d="m 7254.8,624.2 c 114.7,-113.9 299.9,-113.9 414.6,0 54.4,57.5 83.7,134.3 81.3,213.4 2.4,79.1 -26.9,155.9 -81.3,213.4 -114.7,113.9 -299.9,113.9 -414.6,0 -54.4,-57.5 -83.7,-134.3 -81.3,-213.4 -2.4,-79.1 26.8,-155.9 81.3,-213.4 z M 7333,985 c 67.3,71.1 179.5,74.2 250.7,6.9 2.4,-2.2 4.7,-4.6 6.9,-6.9 37.1,-39.8 56.7,-92.9 54.4,-147.3 2.4,-54.4 -17.2,-107.5 -54.4,-147.3 -67.3,-71.1 -179.5,-74.2 -250.7,-6.9 -2.4,2.2 -4.7,4.6 -6.9,6.9 -37.1,39.8 -56.7,92.9 -54.4,147.3 -2.1,54.3 17.7,107.2 54.9,146.8 z"
           class="st4"
           inkscape:connector-curvature="0"
           style="fill:#5f6368" /><path
           id="path722"
           d="m 8333.4,1118.1 h -101.6 v -77.7 h -3 c -18.1,29.5 -43.7,53.7 -74.2,70.1 -31.6,18.3 -67.6,28 -104.2,27.9 -60.2,4.1 -118.9,-19.5 -159.5,-64 -38.5,-48.7 -57.8,-109.8 -54.4,-171.7 V 557.2 h 105.2 v 326.2 c 0,104.7 46.2,157 138.7,157 41.7,1.3 81.4,-17.6 106.7,-50.8 27.3,-34.5 41.8,-77.4 41.2,-121.4 v -311 h 105.2 v 560.9 z"
           class="st4"
           inkscape:connector-curvature="0"
           style="fill:#5f6368" /><path
           id="path724"
           d="m 8690.6,1136.4 c -72.2,0.2 -140.9,-31.1 -188,-85.9 -52.7,-58.2 -80.9,-134.4 -78.8,-212.9 -2.1,-78.5 26.1,-154.7 78.8,-212.9 47.1,-54.7 115.8,-86.1 188,-85.9 40,-0.6 79.5,8.8 114.8,27.4 31.1,15.6 57.4,39.3 76.2,68.6 h 4.6 l -4.6,-77.7 V 297.5 h 105.2 v 820.6 h -101.6 v -77.7 h -4.6 c -18.8,29.3 -45.1,53 -76.2,68.6 -35,18.4 -74.1,27.9 -113.8,27.4 z m 17.3,-96 c 48.1,0.7 94.2,-19.3 126.5,-54.9 35.7,-40.7 54,-93.8 50.8,-147.9 3.2,-54 -15.1,-107.2 -50.8,-147.9 -63.8,-70.2 -172.4,-75.3 -242.6,-11.4 -4,3.6 -7.8,7.5 -11.4,11.4 -35.8,40.4 -54.1,93.4 -50.8,147.3 -3.3,53.9 15,106.9 50.8,147.3 32.4,36.4 78.9,56.8 127.5,56.1 z"
           class="st4"
           inkscape:connector-curvature="0"
           style="fill:#5f6368" /></g></g><text
       xml:space="preserve"
       style="font-style:normal;font-variant:normal;font-weight:normal;font-stretch:normal;font-size:1158.86889648px;line-height:1.25;font-family:'Qanelas Soft';-inkscape-font-specification:'Qanelas Soft';letter-spacing:0px;word-spacing:0px;fill:#5f6368;fill-opacity:1;stroke:none;stroke-width:28.97172356"
       x="-6528.6465"
       y="3085.9587"
       id="text832"
       inkscape:export-filename="p-gcp.png"
       inkscape:export-xdpi="24.209999"
       inkscape:export-ydpi="24.209999"><tspan
         sodipodi:role="line"
         id="tspan830"
         x="-6528.6465"
         y="3085.9587"
         style="fill:#5f6368;fill-opacity:1;stroke-width:28.97172356">Powered by</tspan></text>
</g></svg>